<svg xmlns="http://www.w3.org/2000/svg" viewBox="0 0 64 64">
  <rect width="64" height="64" rx="14" fill="#23262b"/>
  <path d="M26.24 39.27C26.24 37.47 25.04 36.2 22.04 36.2H19.58C18.68 36.2 17.94 36.14 17.94 35.47C17.94 34.97 18.38 34.67 18.78 34.52C19.27 34.65 19.79 34.69 20.34 34.69C23.09 34.69 24.92 33.29 24.92 30.87C24.92 29.46 24.31 28.41 23.26 27.78V27.43H25.82V25.41H23.87C22.88 25.41 22.31 26.04 22.31 26.88V27.34C21.74 27.15 21.07 27.05 20.34 27.05C17.59 27.05 15.78 28.48 15.78 30.87C15.78 32.45 16.56 33.6 17.84 34.21V34.31C16.68 34.59 15.89 35.05 15.89 36.12C15.89 37 16.41 37.49 17.25 37.76V37.93C15.99 38.24 15.26 38.83 15.26 40.03C15.26 41.58 16.47 42.59 20.4 42.59C24.37 42.59 26.24 41.54 26.24 39.27ZM23.72 39.46C23.72 40.32 22.92 40.78 21.35 40.78H19.6C18.11 40.78 17.52 40.22 17.52 39.46C17.52 39 17.73 38.64 18.15 38.41H21.89C23.28 38.41 23.72 38.81 23.72 39.46ZM20.34 32.93C18.99 32.93 18.36 32.19 18.36 31.14V30.6C18.36 29.55 18.99 28.81 20.34 28.81C21.7 28.81 22.33 29.55 22.33 30.6V31.14C22.33 32.19 21.7 32.93 20.34 32.93ZM32.26 38.39C34.59 38.39 36.04 37.32 36.78 35.78L34.76 34.59C34.28 35.55 33.56 36.2 32.28 36.2C30.65 36.2 29.76 35.18 29.76 33.62V31.82C29.76 30.24 30.67 29.23 32.24 29.23C33.46 29.23 34.15 29.86 34.53 30.79L36.61 29.65C35.9 28.1 34.53 27.05 32.24 27.05C28.97 27.05 26.95 29.23 26.95 32.72C26.95 36.2 28.94 38.39 32.26 38.39ZM44.86 38.14 48.74 27.3H46.04L44.59 31.9L43.37 35.89H43.22L42 31.9L40.55 27.3H37.74L41.63 38.14Z" fill="#ffffff"/>
</svg>
