<svg xmlns="http://www.w3.org/2000/svg" viewBox="0 0 64 64">
  <rect width="64" height="64" rx="14" fill="#23262b"/>
  <path d="M26.24 39.27Q26.24 40.97 24.82 41.78Q23.4 42.59 20.4 42.59Q18.93 42.59 17.94 42.41Q16.96 42.23 16.36 41.9Q15.76 41.56 15.51 41.09Q15.26 40.62 15.26 40.03Q15.26 39.12 15.78 38.64Q16.31 38.16 17.25 37.93V37.76Q16.62 37.55 16.25 37.17Q15.89 36.79 15.89 36.12Q15.89 35.32 16.42 34.92Q16.96 34.52 17.84 34.31V34.21Q16.87 33.75 16.33 32.91Q15.78 32.07 15.78 30.87Q15.78 29.97 16.11 29.26Q16.43 28.56 17.03 28.07Q17.63 27.57 18.47 27.31Q19.31 27.05 20.34 27.05Q21.43 27.05 22.31 27.34V26.88Q22.31 26.25 22.72 25.83Q23.13 25.41 23.87 25.41H25.82V27.43H23.26V27.78Q24.05 28.27 24.48 29.03Q24.92 29.8 24.92 30.87Q24.92 31.77 24.59 32.49Q24.26 33.2 23.67 33.69Q23.07 34.17 22.22 34.43Q21.37 34.69 20.34 34.69Q19.92 34.69 19.53 34.66Q19.14 34.63 18.78 34.52Q18.49 34.63 18.22 34.86Q17.94 35.09 17.94 35.47Q17.94 35.97 18.43 36.09Q18.91 36.2 19.58 36.2H22.04Q23.17 36.2 23.97 36.43Q24.77 36.65 25.27 37.06Q25.78 37.47 26.01 38.03Q26.24 38.6 26.24 39.27ZM23.72 39.46Q23.72 38.98 23.33 38.69Q22.94 38.41 21.89 38.41H18.15Q17.52 38.77 17.52 39.46Q17.52 40.03 18 40.41Q18.47 40.78 19.6 40.78H21.35Q23.72 40.78 23.72 39.46ZM20.34 32.93Q21.37 32.93 21.85 32.44Q22.33 31.94 22.33 31.14V30.6Q22.33 29.8 21.85 29.31Q21.37 28.81 20.34 28.81Q19.33 28.81 18.85 29.31Q18.36 29.8 18.36 30.6V31.14Q18.36 31.94 18.85 32.44Q19.33 32.93 20.34 32.93ZM32.26 38.39Q31.02 38.39 30.04 37.99Q29.05 37.59 28.37 36.86Q27.68 36.12 27.32 35.07Q26.95 34.02 26.95 32.72Q26.95 31.42 27.32 30.37Q27.68 29.32 28.37 28.58Q29.05 27.85 30.03 27.45Q31 27.05 32.24 27.05Q33.96 27.05 35.01 27.76Q36.06 28.48 36.61 29.65L34.53 30.79Q34.24 30.09 33.7 29.66Q33.17 29.23 32.24 29.23Q31.04 29.23 30.4 29.93Q29.76 30.62 29.76 31.82V33.62Q29.76 34.8 30.4 35.5Q31.04 36.2 32.28 36.2Q33.25 36.2 33.83 35.76Q34.4 35.32 34.76 34.59L36.78 35.78Q36.23 36.94 35.13 37.66Q34.03 38.39 32.26 38.39ZM41.63 38.14 37.74 27.3H40.55L42 31.9L43.22 35.89H43.37L44.59 31.9L46.04 27.3H48.74L44.86 38.14Z" fill="#ffffff"/>
</svg>
